<?xml version="1.0" standalone="no"?>
<!DOCTYPE svg PUBLIC "-//W3C//DTD SVG 20010904//EN"
 "http://www.w3.org/TR/2001/REC-SVG-20010904/DTD/svg10.dtd">
<svg version="1.0" xmlns="http://www.w3.org/2000/svg"
 width="128.000000pt" height="128.000000pt" viewBox="0 0 128.000000 128.000000"
 preserveAspectRatio="xMidYMid meet">
<metadata>
Created by potrace 1.11, written by Peter Selinger 2001-2013
</metadata>
<g transform="translate(0.000000,128.000000) scale(0.100000,-0.100000)"
fill="#000000" stroke="none">
<path d="M475 1256 c-213 -58 -375 -214 -446 -428 -27 -80 -33 -243 -13 -331
50 -214 215 -393 434 -468 53 -18 87 -22 190 -23 110 0 134 3 198 26 191 69
329 202 402 388 28 70 35 122 34 240 -1 269 -192 517 -453 593 -102 29 -248
30 -346 3z"/>
</g>
</svg>
